<?xml version="1.0" encoding="UTF-8"?>
<svg id="Art" xmlns="http://www.w3.org/2000/svg" version="1.1" viewBox="0 0 150.89 59.76">
  <!-- Generator: Adobe Illustrator 30.1.0, SVG Export Plug-In . SVG Version: 2.1.1 Build 136)  -->
  <defs>
    <style>
      .st0 {
        fill: #009639;
      }

      .st1 {
        fill: #fff;
      }
    </style>
  </defs>
  <path class="st1" d="M106.37,49.18h-1.28v-1.76h3.03v-.79h-3.86v3.32h2.08c.74,0,1.17.34,1.17.96v.67c0,.69-.47,1.08-1.33,1.08s-1.29-.39-1.29-1.08v-.63h-.83v.61c.15,1.18,1.24,2.01,2.42,1.86.97-.13,1.73-.89,1.86-1.86v-.64c.01-.96-.76-1.76-1.72-1.77-.08,0-.15,0-.23.01"/>
  <polygon class="st1" points="103.31 47.42 103.31 46.64 99.22 46.64 99.22 53.33 100.05 53.33 100.05 50.63 102.97 50.63 102.97 49.83 100.05 49.83 100.05 47.42 103.31 47.42"/>
  <path class="st1" d="M95.8,46.79h.42v-.77h-.51c-.89-.06-1.66.61-1.72,1.49,0,.11,0,.22.01.33v.69h-.56v.76h.56v4.03h.81v-4.03h1.33v-.76h-1.33v-.63c0-.8.31-1.12,1-1.12"/>
  <path class="st1" d="M85.28,52.56c-.65,0-.98-.3-.98-1.07v-2.19h1.31v-.76h-1.31v-1.4h-.81v1.4h-.65v.76h.65v2.37c0,1.15.54,1.66,1.61,1.66h.59v-.77h-.42Z"/>
  <path class="st1" d="M81.95,48.45c-.55-.02-1.09.19-1.48.58l-.16-.49h-.56v4.79h.81v-3.02c-.02-.63.47-1.15,1.1-1.17.05,0,.11,0,.16,0,.14,0,.27.02.41.05v-.74c-.09,0-.18-.01-.28,0"/>
  <path class="st1" d="M90.72,48.41c-1-.12-1.91.59-2.03,1.59-.02.13-.02.26,0,.4v1.06c.03,1.13.97,2.02,2.1,1.99,1.09-.03,1.96-.9,1.99-1.99v-1.06c.09-1-.64-1.89-1.65-1.99-.13-.01-.27-.01-.4,0ZM91.96,51.41c0,.84-.38,1.27-1.24,1.27s-1.23-.43-1.23-1.27v-.97c0-.84.38-1.26,1.24-1.26s1.23.42,1.23,1.26v.97Z"/>
  <path class="st1" d="M78.11,48.54l-.15.48c-.38-.42-.93-.64-1.5-.61-1.18,0-1.87.59-1.87,2.02v1c0,1.42.69,2.02,1.87,2.02.57.04,1.12-.19,1.5-.61l.15.48h.56v-4.79h-.56ZM76.6,52.68c-.81,0-1.21-.4-1.21-1.31v-.89c0-.91.4-1.3,1.21-1.3.62-.07,1.18.37,1.26.99,0,.05,0,.1,0,.16v1.2c.02.63-.48,1.15-1.11,1.16-.05,0-.1,0-.15,0"/>
  <path class="st1" d="M71.84,46.64h-2.62v6.69h.83v-2.43h1.79c1.3,0,2.04-.67,2.04-1.76v-.73c0-1.1-.74-1.76-2.05-1.76M73.06,49.13c0,.64-.38.97-1.18.97h-1.83v-2.68h1.84c.79,0,1.17.34,1.17.98v.73Z"/>
  <path class="st0" d="M.41,44.82c.27.47.66.86,1.13,1.13l23.2,13.4h0c.95.56,2.13.56,3.08,0l23.2-13.4c.96-.54,1.55-1.57,1.54-2.67v-26.79h0c0-1.1-.58-2.13-1.54-2.67L27.83.42h0c-.95-.56-2.13-.56-3.08,0h0S1.54,13.82,1.54,13.82C.58,14.36,0,15.38,0,16.49H0v26.79c0,.54.14,1.08.41,1.54"/>
  <path class="st1" d="M18.86,40.08c0,1.65-1.34,2.98-2.98,2.98s-2.98-1.34-2.98-2.98h0s0-20.48,0-20.48c.11-1.71,1.59-3.02,3.3-2.91.03,0,.06,0,.08,0,1.56-.02,3.04.64,4.07,1.82l.9,1.08,12.47,14.92v-14.83h0c0-1.65,1.33-2.98,2.98-2.99,1.65,0,2.98,1.33,2.99,2.98h0s0,0,0,0v20.48c-.11,1.71-1.59,3.02-3.31,2.91-.03,0-.06,0-.08,0-1.56.02-3.04-.64-4.07-1.82l-13.37-16v14.83h0Z"/>
  <polygon class="st1" points="144 19.79 140.07 19.79 135.74 26.66 131.52 19.79 127.44 19.79 133.51 29.71 127.39 39.97 131.26 39.97 135.57 33.04 139.78 39.97 143.86 39.97 137.73 29.96 144 19.79"/>
  <polygon class="st1" points="122.36 19.79 122.36 33.53 114.44 19.79 111.16 19.79 111.16 39.97 114.44 39.97 114.44 26.32 122.36 39.97 125.67 39.97 125.67 19.79 122.36 19.79"/>
  <rect class="st1" x="104.96" y="19.79" width="3.51" height="20.18"/>
  <path class="st1" d="M102.26,26.97v-1.14c0-3.9-2.88-6.44-7.92-6.44s-7.9,2.54-7.9,6.44v8.1c0,3.91,2.91,6.44,7.92,6.44s7.9-2.54,7.9-6.44v-4.73h-8.04v3.25h4.53v1.28c0,2.11-1.6,3.39-4.42,3.39s-4.39-1.28-4.39-3.39v-7.7c0-2.11,1.6-3.39,4.42-3.39s4.39,1.28,4.39,3.39v.94h3.51Z"/>
  <polygon class="st1" points="80.42 19.79 80.42 33.53 72.5 19.79 69.22 19.79 69.22 39.97 72.5 39.97 72.5 26.32 80.42 39.97 83.73 39.97 83.73 19.79 80.42 19.79"/>
  <path class="st1" d="M148.12,39.06h.38v-.85h.3c.14-.01.29.01.42.07.15.12.23.31.2.49v.24s.01.02.01.03c0,.01,0,.01,0,.02h.35v-.02s-.03-.07-.03-.11c0-.06,0-.11,0-.16v-.16c0-.12-.05-.24-.12-.34-.09-.12-.23-.2-.38-.21.11-.01.22-.05.31-.1.14-.09.22-.26.21-.43.02-.24-.11-.46-.33-.55-.19-.06-.39-.09-.59-.08h-.75v2.16ZM149.2,37.9c-.12.04-.24.05-.36.05h-.34v-.79h.32c.16,0,.31.02.46.08.1.07.16.19.14.32.01.15-.08.29-.22.34M150.31,36.6c-.37-.37-.87-.58-1.4-.57-1.09,0-1.97.89-1.96,1.98,0,1.08.88,1.96,1.96,1.96,1.09,0,1.97-.88,1.98-1.97,0-.52-.21-1.03-.58-1.4M150.11,36.8c.33.31.5.75.49,1.2,0,.93-.75,1.7-1.68,1.7-.45,0-.89-.18-1.21-.5-.32-.32-.5-.75-.49-1.2,0-.94.75-1.7,1.69-1.7.45,0,.89.17,1.2.5"/>
</svg>