<?xml version="1.0" encoding="UTF-8"?>
<svg id="Layer_1" data-name="Layer 1" xmlns="http://www.w3.org/2000/svg" viewBox="0 0 644.5965344 182.2748198">
  <g>
    <g>
      <g>
        <path d="M303.7587022,38.6669983v94.8271484h-20.1674805l-38.5991211-58.3652344v58.3652344h-20.1674805V38.6669983h20.1674805l38.5991211,58.6328125v-58.6328125h20.1674805Z" style="fill: #222;"/>
        <path d="M381.7108506,72.8584045v-1.4697266c0-9.75-8.6816406-16.0273438-22.8388672-16.0273438-14.2910156,0-23.105957,6.2773438-23.105957,16.0273438v29.3837891c0,9.75,8.6816406,16.0273438,22.972168,16.0273438,14.2910156,0,22.9726562-6.2773438,22.9726562-16.0273438h-23.3730469v-18.6992188h44.0751953v20.4355469c0,20.1669922-15.8935547,32.9892578-43.5410156,32.9892578-27.7802734,0-43.8076172-12.8222656-43.8076172-32.9892578v-32.8564453c0-20.1669922,15.8935547-32.9892578,43.6738281-32.9892578,27.78125,0,43.6748047,12.8222656,43.6748047,32.9892578v3.2060547h-20.7021484Z" style="fill: #222;"/>
        <path d="M413.7987412,38.6669983h20.7011719v94.8271484h-20.7011719V38.6669983Z" style="fill: #222;"/>
        <path d="M526.0126084,38.6669983v94.8271484h-20.1669922l-38.5996094-58.3652344v58.3652344h-20.1669922V38.6669983h20.1669922l38.5996094,58.6328125v-58.6328125h20.1669922Z" style="fill: #222;"/>
        <path d="M591.6776475,86.748053l31.5200195,46.7460938h-24.7084961l-19.9003906-29.5166016-20.7021484,29.5166016h-23.3730469l31.6533203-47.9482422-31.6533203-46.8789062h24.7089844l20.3007813,30.0507812,21.5029297-30.0507812h23.7749023l-33.1235352,48.0810547Z" style="fill: #222;"/>
      </g>
      <g>
        <path d="M226.025792,172.2460999v-.7685547h3.9360352v.8964844c0,2.1757812,2.5917969,3.7431641,6.2075195,3.7431641,2.9755859,0,5.503418-1.1513672,5.503418-3.4550781,0-5.1845703-15.1347656-1.1201172-15.1347656-9.7919922,0-3.4238281,2.4956055-6.6552734,9.1191406-6.6552734,6.527832,0,9.4394531,3.0400391,9.4394531,7.1357422v.8632812h-3.9355469v-.8632812c0-1.984375-2.1757812-3.4882812-5.5678711-3.4882812-3.0717773,0-5.0874023,1.1845703-5.0874023,3.0078125,0,4.2880859,15.0708008,1.1523438,15.1347656,9.7597656,0,3.9033203-3.199707,7.1347656-9.5991211,7.1347656-6.4316406,0-10.015625-3.1669922-10.015625-7.5185547Z" style="fill: #999;"/>
        <path d="M269.1830186,163.2539124v1.6640625c0,4.0634766-2.7836914,6.5917969-7.6157227,6.5917969h-7.0073242v7.8076172h-3.9355469v-22.6542969h10.9111328c4.831543,0,7.6474609,2.5273438,7.6474609,6.5908203ZM265.2469834,163.1259827c0-1.7919922-1.1518555-2.8154297-3.4555664-2.8154297h-7.2314453v7.5517578h7.2314453c2.2719727,0,3.4555664-1.0244141,3.4555664-2.8164062v-1.9199219Z" style="fill: #999;"/>
        <path d="M273.9652452,171.9257874v-7.8076172c0-4.8632812,3.487793-7.9033203,10.2392578-7.9033203s10.2709961,3.0400391,10.2709961,7.9033203v7.8076172c0,4.8320312-3.5195312,7.8388672-10.2392578,7.8388672-6.7514648,0-10.2709961-3.0068359-10.2709961-7.8388672ZM290.5399522,171.5419983v-7.0400391c0-2.9111328-1.855957-4.6396484-6.3037109-4.6396484s-6.3354492,1.7285156-6.3354492,4.6396484v7.0400391c0,2.8798828,1.855957,4.5751953,6.3037109,4.5751953,4.4794922,0,6.3354492-1.6953125,6.3354492-4.5751953Z" style="fill: #999;"/>
        <path d="M318.0399522,156.663092v22.6542969h-3.8393555l-10.4956055-15.6787109v15.6787109h-3.8393555v-22.6542969h3.8393555l10.4956055,15.7421875v-15.7421875h3.8393555Z" style="fill: #999;"/>
        <path d="M323.0365342,172.2460999v-.7685547h3.9360352v.8964844c0,2.1757812,2.5917969,3.7431641,6.2075195,3.7431641,2.9755859,0,5.503418-1.1513672,5.503418-3.4550781,0-5.1845703-15.1347656-1.1201172-15.1347656-9.7919922,0-3.4238281,2.4956055-6.6552734,9.1191406-6.6552734,6.527832,0,9.4394531,3.0400391,9.4394531,7.1357422v.8632812h-3.9355469v-.8632812c0-1.984375-2.1757812-3.4882812-5.5678711-3.4882812-3.0717773,0-5.0874023,1.1845703-5.0874023,3.0078125,0,4.2880859,15.0708008,1.1523438,15.1347656,9.7597656,0,3.9033203-3.199707,7.1347656-9.5991211,7.1347656-6.4316406,0-10.015625-3.1669922-10.015625-7.5185547Z" style="fill: #999;"/>
        <path d="M347.4012803,171.9257874v-7.8076172c0-4.8632812,3.487793-7.9033203,10.2392578-7.9033203,6.7509766,0,10.2714844,3.0400391,10.2714844,7.9033203v7.8076172c0,4.8320312-3.5205078,7.8388672-10.2392578,7.8388672-6.7519531,0-10.2714844-3.0068359-10.2714844-7.8388672ZM363.9754991,171.5419983v-7.0400391c0-2.9111328-1.8554688-4.6396484-6.3027344-4.6396484-4.4482422,0-6.3359375,1.7285156-6.3359375,4.6396484v7.0400391c0,2.8798828,1.8554688,4.5751953,6.3037109,4.5751953,4.4794922,0,6.3349609-1.6953125,6.3349609-4.5751953Z" style="fill: #999;"/>
        <path d="M387.7333116,170.038092l4.1269531,9.2792969h-4.0957031l-4.0634766-8.7353516h-6.4628906v8.7353516h-3.9365234v-22.6542969h10.9111328c4.8320312,0,7.6474609,2.4316406,7.6474609,6.5273438v.8642578c0,2.9755859-1.4716797,5.0869141-4.1269531,5.9833984ZM387.9247178,163.0625061c0-1.7919922-1.1513672-2.7519531-3.4550781-2.7519531h-7.2314453v6.6230469h7.2314453c2.2714844,0,3.4550781-.9599609,3.4550781-2.7509766v-1.1201172Z" style="fill: #999;"/>
        <path d="M400.74796,160.310553v6.1113281h11.1992187v3.6474609h-11.1992187v5.5996094h12.5429687v3.6484375h-16.4794922v-22.6542969h16.4794922v3.6474609h-12.5429687Z" style="fill: #999;"/>
        <path d="M437.8856553,164.5019592v6.9755859c0,4.8320312-3.4882812,7.8398438-9.7597656,7.8398438h-9.8232422v-22.6542969h9.7919922c6.3027344,0,9.7910156,3.0078125,9.7910156,7.8388672ZM433.9501084,164.8857483c0-2.8789062-1.8564453-4.5751953-5.5673828-4.5751953h-6.1435547v15.3583984h6.1113281c3.7431641,0,5.5996094-1.6953125,5.5996094-4.5751953v-6.2080078Z" style="fill: #999;"/>
        <path d="M472.3495225,171.7978577v1.5039062c0,3.5517578-2.7841797,6.015625-6.7519531,6.015625h-11.9033203v-22.6542969h11.1679688c3.9677734,0,6.7509766,2.1435547,6.7509766,5.4394531v1.5673828c0,1.4404297-.671875,2.7841797-1.8876953,3.7119141,1.6640625.9599609,2.6240234,2.6240234,2.6240234,4.4160156ZM457.6307725,160.1826233v5.7910156h7.2314453c1.5996094,0,2.8154297-.7353516,2.8154297-2.2714844v-1.5039062c0-1.34375-1.2480469-2.015625-2.7841797-2.015625h-7.2626953ZM468.4139756,171.7978577c0-1.4404297-1.0878906-2.3359375-2.8164062-2.3359375h-7.9667969v6.3359375h7.9345703c1.7607422,0,2.8486328-.9599609,2.8486328-2.3681641v-1.6318359Z" style="fill: #999;"/>
        <path d="M487.3446397,171.2861389v8.03125h-3.9355469v-8l-8.1914062-14.6542969h4.3837891l5.7910156,10.1748047,5.8242188-10.1748047h4.3515625l-8.2236328,14.6230469Z" style="fill: #999;"/>
        <path d="M514.0975694,160.310553v6.8476562h11.5185547v3.6474609h-11.5185547v8.5117188h-3.9365234v-22.6542969h16.4794922v3.6474609h-12.5429687Z" style="fill: #999;"/>
        <path d="M547.669835,171.4453186v1.6005859c0,4.0957031-3.2958984,6.71875-8.3828125,6.71875-5.0556641,0-8.3515625-2.6230469-8.3515625-6.7509766v-1.5683594h3.9355469v1.7919922c0,1.9199219,1.5996094,2.9755859,4.4160156,2.9755859,2.8476562,0,4.4472656-1.0556641,4.4472656-2.9755859v-2.015625c0-1.6640625-1.3115234-2.5595703-3.2314453-2.5595703h-8.8955078v-11.9990234h15.2304688v3.6474609h-11.2949219v4.7998047h5.1835938c4.2558594,0,6.9433594,2.4316406,6.9433594,6.3349609Z" style="fill: #999;"/>
      </g>
    </g>
    <g>
      <path d="M1.5153687,127.9695744c.8008272,1.3890643,1.9298284,2.472657,3.2322044,3.2074385l66.1219075,38.1755109.0020629-.0020629c1.2899922.7595475,2.7905137,1.1950498,4.394225,1.1950498,1.6037192,0,3.1063035-.4355023,4.3942329-1.1950498l66.1239753-38.1755109c1.3023694-.7347814,2.4272388-1.8163113,3.2301298-3.2053756.802891-1.3890604,1.1764723-2.9060925,1.1620323-4.4024843V47.2160645l-.0020629-.0020629c.0123771-1.494325-.3612041-3.01342-1.1620323-4.4024843-.802891-1.3890643-1.9318862-2.4705981-3.2321927-3.2074385L79.6558756,1.428568v-.0020629c-1.2879294-.7595554-2.7884508-1.1950537-4.39217-1.1950537-1.6016485,0-3.1021699.4354984-4.3900993,1.1950537v.0020629L4.7517008,39.6040789c-1.3023758.7368404-2.4313769,1.8183741-3.2342681,3.2074385-.8008271,1.3890643-1.1744089,2.9081593-1.1620249,4.4024843l-.0020641.0020629v76.3510257c-.0144479,1.4963918.3591339,3.0134239,1.159961,4.4024843" style="fill: #009639;"/>
      <path d="M54.0940071,114.4556145c0,4.6955749-3.8059967,8.5036305-8.5036305,8.5036305-4.6955709,0-8.5036266-3.8080557-8.5036266-8.5036305l.0020629.0020668.0082554-58.3736997c0-4.5221928,3.9958816-8.2621389,9.6553328-8.2621389,4.0516063,0,8.7286036,1.6346778,11.5913566,5.1826682l2.5696623,3.075345,35.5253539,42.5140152v-42.2725275h-.0041257c0-4.6955749,3.8080517-8.5036266,8.5056895-8.5036266,4.6955749,0,8.5015638,3.8080517,8.5015638,8.5036266h-.0020629l-.0082514,58.3695661c0,4.5221967-3.9979445,8.2621428-9.6553368,8.2621428-4.053673,0-8.7286036-1.6326149-11.5913566-5.1826721l-38.0950163-45.5893602v42.276661l.0041296-.0020668Z" style="fill: #fff;"/>
    </g>
  </g>
  <path d="M637.915229,125.5868811c.8466511.8080881,1.260838,1.8134396,1.260838,2.9869265,0,1.1622394-.4141869,2.1759545-1.260838,3.0042303-.8345645.8222195-1.8563237,1.2420976-3.0590871,1.2420976-1.1909716,0-2.2124115-.4198781-3.0531912-1.2420976-.8289634-.8282758-1.2552124-1.8419909-1.2552124-3.0042303,0-1.1734869.426249-2.1788384,1.2552124-2.9869265.8552001-.8424073,1.8710635-1.2536612,3.0531912-1.2536612,1.1998154,0,2.2154086.411254,3.0590871,1.2536612ZM638.4231607,125.0986252c-.9866787-.9537285-2.1688064-1.427853-3.5670188-1.427853-1.3690277,0-2.5567565.4741245-3.5260423,1.427853-.9863839.9566124-1.4654256,2.1159679-1.4654256,3.4751824,0,1.3563305.4728511,2.5214539,1.4480327,3.4722984.968991.9681483,2.1629105,1.4480407,3.5434352,1.4480407,1.3982124,0,2.5803401-.4798924,3.5670188-1.4480407.9719389-.9566124,1.4713215-2.1243593,1.4713215-3.4722984,0-1.3678664-.4993826-2.5185699-1.4713215-3.4751824ZM635.6034717,128.3367453c-.1954737.0827699-.5079563.1199452-.922438.1199452h-.8699153v-1.9587637h.8292336c.5368216,0,.9280145.074118,1.167388.2053106.2482173.1373049.3676339.4000344.3676339.7882166,0,.4170219-.1866298.6909989-.5719022.8452913ZM632.8421029,131.2380179h.9690155v-2.1185635h.7679162c.5079317,0,.872593.0510462,1.0798339.1767873.3413725.199859.5165054.6139691.5165054,1.2337619v.4337489l.0176877.1629442c.0117918.0314353.0117918.0455667.0147397.0654661.0055765.0259557.0085244.0346076.0262121.0458551h.8988298l-.0321326-.0625821c-.02916-.0400872-.0436297-.131509-.0465776-.2745538-.011497-.148236-.011497-.279745-.011497-.3997181v-.3997181c0-.2742654-.1022938-.5482425-.3006908-.8366393-.2045877-.2883969-.5256194-.4568207-.957494-.531255.3443205-.0539023.6131735-.1456125.7968307-.2540497.3676093-.2284103.5397695-.5938371.5397695-1.0679336,0-.6739835-.2741593-1.1365721-.8519574-1.3649824-.3183785-.125741-.8174664-.1941191-1.5031594-.1941191h-1.9238318v5.3855513Z" style="fill: #999;"/>
</svg>