<?xml version="1.0" encoding="utf-8"?>
<!-- Generator: Adobe Illustrator 24.2.3, SVG Export Plug-In . SVG Version: 6.00 Build 0)  -->
<svg version="1.1" xmlns="http://www.w3.org/2000/svg" xmlns:xlink="http://www.w3.org/1999/xlink" x="0px" y="0px"
	 viewBox="0 0 84.24 73.44" style="enable-background:new 0 0 84.24 73.44;" xml:space="preserve">
<style type="text/css">
	.st0{fill:#009639;}
	.st1{fill:#FFFFFF;}
</style>
<g id="Layer_1">
</g>
<g id="_x3C_Layer_x3E_">
</g>
<g id="Art">
	<g>
		<g>
			<g>
				<path class="st0" d="M0.52023,54.72109c0.33856,0.58723,0.81586,1.04531,1.36645,1.35594l27.95375,16.13864l0.00087-0.00087
					c0.54536,0.32109,1.17972,0.5052,1.85771,0.5052c0.67799,0,1.31322-0.18411,1.85771-0.5052l27.95462-16.13864
					c0.55059-0.31063,1.02614-0.76784,1.36557-1.35507c0.33943-0.58722,0.49737-1.22855,0.49126-1.86114V20.58267l-0.00087-0.00087
					c0.00523-0.63172-0.1527-1.27392-0.49126-1.86114c-0.33943-0.58722-0.81672-1.04444-1.36644-1.35594L33.55497,1.22608V1.22521
					C33.01049,0.90411,32.37613,0.72,31.69814,0.72c-0.67711,0-1.31148,0.18411-1.85596,0.50521v0.00087L1.88842,17.36472
					c-0.55059,0.3115-1.02789,0.76871-1.36732,1.35594c-0.33856,0.58722-0.49649,1.22942-0.49126,1.86114l-0.00087,0.00087v32.27728
					c-0.00611,0.6326,0.15183,1.27392,0.49039,1.86114"/>
				<path class="st1" d="M22.74842,49.00808c0,1.98505-1.60903,3.5949-3.595,3.5949c-1.9851,0-3.595-1.60985-3.595-3.5949
					l0.00087,0.00087l0.00349-24.67739c0-1.91175,1.6893-3.49281,4.0819-3.49281c1.71286,0,3.69011,0.69106,4.90037,2.19097
					l1.08635,1.3001l15.01873,17.97273V24.43191h-0.00174c0-1.98505,1.60989-3.59489,3.59587-3.59489
					c1.98511,0,3.59413,1.60985,3.59413,3.59489h-0.00087l-0.00349,24.67564c0,1.91175-1.69017,3.49281-4.0819,3.49281
					c-1.71373,0-3.69011-0.69019-4.90037-2.19097L22.74667,31.13657v17.87239L22.74842,49.00808z"/>
			</g>
		</g>
		<g>
			<path class="st1" d="M56.33027,24.57996c0-0.99002,0.81001-1.80003,1.80003-1.80003h24.28087
				c0.99002,0,1.80003,0.81001,1.80003,1.80003v24.28008c0,0.99001-0.81001,1.80003-1.80003,1.80003H58.1303
				c-0.99001,0-1.80003-0.81001-1.80003-1.80003V24.57996z"/>
		</g>
		<path class="st0" d="M57.77035,24.21994h25.00085v25.00012H57.77035V24.21994z"/>
		<g>
			<path class="st1" d="M64.32697,40.55984h0.84768c0.99222,0,1.43999-0.72021,1.43999-1.82422v-7.6792h1.96783v7.64747
				c0,2.14405-1.39164,3.67969-3.51963,3.67969h-0.73586V40.55984z"/>
			<path class="st1" d="M69.91112,39.29568V38.8157h1.96783v0.72021c0,0.92773,0.54396,1.31202,1.19974,1.31202
				c0.64015,0,1.15237-0.46436,1.15237-1.32813c0-2.30371-4.11193-2.0957-4.11193-5.55176c0-1.90381,1.168-3.13574,2.99178-3.13574
				c1.80767,0,2.97567,1.13623,2.97567,2.92774v0.73633h-1.96783v-0.896c0-0.59229-0.44777-0.94385-1.00784-0.94385
				c-0.59181,0-1.00784,0.3999-1.00784,1.16748c0,1.98389,4.11145,1.74414,4.11145,5.47168
				c0,2.01612-1.23148,3.31202-3.16757,3.31202C71.14309,42.6077,69.91112,41.3118,69.91112,39.29568z"/>
		</g>
	</g>
</g>
</svg>
