<?xml version="1.0" encoding="utf-8"?>
<!-- Generator: Adobe Illustrator 27.1.1, SVG Export Plug-In . SVG Version: 6.00 Build 0)  -->
<svg version="1.1" id="Art" xmlns="http://www.w3.org/2000/svg" xmlns:xlink="http://www.w3.org/1999/xlink" x="0px" y="0px"
	 viewBox="0 0 396 396" style="enable-background:new 0 0 396 396;" xml:space="preserve">
<style type="text/css">
	.st0{fill:#999999;}
	.st1{fill:#62C026;}
	.st2{fill:#009639;}
	.st3{fill:#1C6333;}
	.st4{fill:#FFFFFF;}
	.st5{fill:#222222;}
	.st6{fill:#CCCCCC;}
</style>
<g>
	<g>
		<g>
			<g>
				<ellipse class="st0" cx="233.6082458" cy="27.5369205" rx="6.5101309" ry="6.9680333"/>
			</g>
		</g>
		<g>
			<g>
				<path class="st1" d="M272.6349182,254.4818268c-13.7588501,0-24.0188599-4.1591797-24.6984711-4.4418945l4.7792511-11.5830078
					l-2.3896332,5.7915039l2.3726044-5.7988281c0.217453,0.0893555,22.0106201,8.7749023,42.2363281-1.7431641
					c15.6478882-8.1381836,26.6619568-25.5869141,32.7362366-51.8618164l12.1680298,2.8339844
					c-6.958252,30.0966797-20.1838989,50.3637695-39.3091736,60.237793
					C290.8509521,252.9134674,281.083252,254.4818268,272.6349182,254.4818268z"/>
			</g>
			<g>
				<g>
					<path class="st2" d="M348.4722595,192.5644989c-0.2987366,0.901001-1.1872864,1.4969635-2.1477661,1.3342285
						l-27.1986694-4.6083832c-0.9604492-0.162735-1.6058044-1.0186005-1.5932922-1.9680939l-0.0574341-0.0097351
						c0,0,0.0198669-0.1181335,0.047821-0.2844696c0.0777283-0.4621582-0.0263672,0.1567383,0.2033386-1.2089233
						c0.7006836-4.1659698,1.8866577-11.2173309,2.2141113-13.1642303
						c1.2767334-7.5910034,6.6867981-13.4314117,13.5195618-15.6271973l-1.8023376,10.7159729
						c-1.7149353,1.6398773-2.9594116,3.7993011-3.3839111,6.3231812c-0.0622253,0.3699951-1.2745361,7.9004822-1.2745361,7.9004822
						l14.2862549,2.420578c0,0,1.2565918-7.1604004,1.4177856-8.1187286
						c0.3728333-2.2167206,0.0580139-4.3813171-0.7516785-6.3099518l1.8762512-11.155426
						c5.4547119,4.3622742,8.4511719,11.4846344,7.2078247,18.8771667
						c-0.3391418,2.0163574-1.5457764,9.1905823-2.2537842,13.4000397
						c-0.2297668,1.3661346-0.1256714,0.7472382-0.2033081,1.2089081c-0.0280762,0.1668091-0.0478516,0.2844696-0.0478516,0.2844696
						L348.4722595,192.5644989z"/>
				</g>
			</g>
		</g>
		<g>
			<g>
				<path class="st1" d="M317.9662781,319.9344788c-15.7315369,0-29.1201477-3.8891602-40.0126038-11.6523438
					c-23.3275452-16.6264648-25.9798737-44.7016602-26.081543-45.8886719l12.4453125-1.0722656l-6.2226562,0.5361328
					l6.2211914-0.5541992c0.0214233,0.2348633,2.3657837,23.6518555,20.9787903,36.8344727
					c14.4000244,10.1987305,34.9045105,11.9838867,60.9393616,5.3046875l3.0930786,12.1464844
					C338.0280457,318.4872131,327.560791,319.9344788,317.9662781,319.9344788z"/>
			</g>
			<g>
				<g>
					<path class="st2" d="M348.9780579,325.530304c-0.9344482,0.1484375-1.8705139-0.3691101-2.1685791-1.2998657
						l-8.4402161-26.3573914c-0.2980347-0.9307556,0.1620483-1.8996582,1.0076599-2.32547l-0.0178223-0.0556641
						c0,0,0.1136475-0.0366821,0.2736511-0.0882874c0.4445801-0.1434021-0.1507874,0.048645,1.1629333-0.3751526
						c4.0074768-1.2927856,10.7905579-3.4809265,12.6633911-4.085083
						c7.3021851-2.3556213,14.9580078-0.2224426,20.0446777,4.8557434l-10.3082581,3.3253479
						c-2.2397461-0.7734985-4.7225952-0.8887329-7.1504517-0.1055298c-0.3559265,0.1148376-7.5749512,2.5-7.5749512,2.5
						l4.4332886,13.8443604c0,0,6.9120483-2.1753845,7.8339233-2.4727783
						c2.1323547-0.6878967,3.9021912-1.9645386,5.2355652-3.5736084l10.7310181-3.4617004
						c-1.3484497,6.8681641-6.2696228,12.8159485-13.3809204,15.1099548
						c-1.9396362,0.6257324-8.8409119,2.8520203-12.8902283,4.1582642
						c-1.3141479,0.4239502-0.7187805,0.2319031-1.1629028,0.3751526c-0.1604614,0.0517578-0.2736511,0.0882874-0.2736511,0.0882874
						L348.9780579,325.530304z"/>
				</g>
			</g>
		</g>
		<g>
			<g>
				<path class="st1" d="M45.5635529,334.098053c-0.5618935-1.0493164-13.6440239-26.0073242-3.1801682-52.7338867
					c7.8665009-20.0913086,26.6278839-35.3349762,55.7626343-45.3081207l4.0320053,11.8662109
					c-25.4350128,8.7065582-41.6248245,21.4589996-48.1199188,37.902359
					c-8.3953094,21.2558594,2.4061661,42.1450195,2.5166016,42.3535156L45.5635529,334.098053z"/>
			</g>
			<g>
				<g>
					<path class="st2" d="M37.9634018,338.9266357c-0.313324-0.8959961,0.0257759-1.913208,0.8844795-2.3746643
						l24.317276-13.0680542c0.8587074-0.4614563,1.8910027-0.1812439,2.4602547,0.57724l0.0513535-0.0276184
						c0,0,0.0563431,0.1056213,0.1356735,0.2543335c0.2204208,0.413208-0.0747604-0.1401367,0.5765762,1.0808411
						c1.9869156,3.7246399,5.3499756,10.0289917,6.2785263,11.7696533
						c3.6204453,6.7868042,2.9048386,14.7290649-1.1586761,20.6636658l-5.1108551-9.580719
						c0.3558197-2.3504028,0.0227585-4.8225708-1.1809769-7.079071c-0.1764679-0.3308105-3.8109245-7.0301819-3.8109245-7.0301819
						l-12.7727776,6.8640442c0,0,3.3737183,6.43396,3.83078,7.2907715c1.0572395,1.9818726,2.6264229,3.5000305,4.4429817,4.5275269
						l5.3204536,9.9736328c-6.9738312-0.0977173-13.6873169-3.8883667-17.2131004-10.4977417
						c-0.9616776-1.8027344-4.3833389-8.2169189-6.3909874-11.9804382c-0.6515617-1.221405-0.3563843-0.6680603-0.5765762-1.0808411
						c-0.0795593-0.1491394-0.1356773-0.2543335-0.1356773-0.2543335L37.9634018,338.9266357z"/>
				</g>
			</g>
		</g>
		<g>
			<g>
				<g>
					<ellipse class="st3" cx="273.0252991" cy="249.6885071" rx="11.5884895" ry="14.3557615"/>
				</g>
			</g>
		</g>
		<g>
			<g>
				<g>
					<ellipse class="st3" cx="270.2846985" cy="293.6997986" rx="11.5884895" ry="14.3557615"/>
				</g>
			</g>
		</g>
		<g>
			<g>
				<g>
					<ellipse class="st3" cx="85.8877487" cy="249.6885071" rx="11.5884895" ry="14.3557615"/>
				</g>
			</g>
		</g>
		<g>
			<path class="st1" d="M261.5209961,308.5019836c0-36.9639587-36.7260284-66.9291687-82.0296936-66.9291687
				c-45.3038483,0-82.0297852,29.96521-82.0297852,66.9291687s36.7259369,66.9291382,82.0297852,66.9291382
				c0.0342255,0,0.0682678-0.0010071,0.1024933-0.0010376c0.0342255,0.0000305,0.0682678,0.0010376,0.1024933,0.0010376
				c0,0-0.0057678-0.0019226-0.0061188-0.0020447C224.9022369,375.3413086,261.5209961,345.4117126,261.5209961,308.5019836z"/>
		</g>
		<g>
			<g>
				<path class="st3" d="M179.4912262,351.9050293c46.0385742,0,83.9539337-10.9911194,89.0897369-30.8966064
					c0.2572021-0.6741333,0.4446106-1.3677673,0.4887085-2.0906372l8.1465149-130.0874786
					c0.295166-4.8997955-7.0882263-12.6590271-13.5370789-12.882843l-72.2602539,3.7928314
					c-6.4488525-0.2238159-17.0009766-0.2245026-23.4498291-0.0016174L95.30336,175.9490967
					c-6.4488525,0.2229919-13.8310471,7.9814148-13.5370789,12.8812103l8.147728,130.0874786
					c0.0428696,0.7232056,0.2314911,1.4170837,0.4887161,2.0914307"/>
			</g>
		</g>
		<g>
			<g>
				<path class="st2" d="M179.4909973,179.5713806c-4.1828156,0.0014191-8.3497314,0.0569305-11.5230255,0.1666412
					l-72.6645203-3.7897034c-6.4488297,0.2229462-13.8318558,7.9815369-13.537262,12.881424l8.146431,130.0874939
					c0.0435562,0.7230835,0.2326889,1.4169617,0.4894485,2.0910339
					c5.1363678,19.9052124,43.0521698,30.8959045,89.0891876,30.8959045"/>
			</g>
		</g>
		<g>
			<g>
				<path class="st1" d="M268.4827576,143.9650421c-5.3685608-37.166214-43.1494904-65.9713745-88.9915619-65.9713745
					s-83.6229858,28.8051605-88.9915619,65.9713745l-0.6789551,33.4860687c0,0,34.2848587,15.4755249,89.670517,15.4755249
					s89.670517-15.4755249,89.670517-15.4755249L268.4827576,143.9650421z"/>
			</g>
		</g>
		<g>
			<g>
				<g>
					<path class="st4" d="M125.2552109,153.0145874c0.2708817,0.4715881,0.6527634,0.8394623,1.0932922,1.088913
						l22.3656998,12.9605103l0.0007019-0.0007019c0.4363403,0.2578583,0.9438934,0.4057159,1.4863434,0.4057159
						c0.5424652,0,1.050705-0.1478577,1.4863434-0.4057159l22.3664093-12.9605103
						c0.4405212-0.2494507,0.8210144-0.6166229,1.0925903-1.0882111s0.397934-0.986618,0.3930511-1.4946442v-25.9209976
						l-0.0006866-0.0007019c0.0041809-0.5073242-0.1221771-1.0230484-0.3930664-1.4946365
						c-0.2715759-0.4715805-0.6534576-0.8387604-1.093277-1.0889206L151.686203,110.054184v-0.0006943
						c-0.4356384-0.2578735-0.9431915-0.4057236-1.4856567-0.4057236c-0.541748,0-1.0493011,0.14785-1.4849396,0.4057236v0.0006943
						l-22.3657074,12.9605026c-0.4405289,0.2501602-0.8224106,0.6173401-1.0939865,1.0889206
						c-0.2708817,0.4715881-0.3972473,0.9873123-0.3930588,1.4946365l-0.0006943,0.0007019v25.9209976
						c-0.0048904,0.5080261,0.1214752,1.023056,0.3923569,1.4946442"/>
				</g>
			</g>
		</g>
		<g>
			<ellipse cx="150.2008972" cy="138.5583954" rx="11.775178" ry="11.8186417"/>
		</g>
		<g>
			<ellipse class="st4" cx="153.6000214" cy="135.584259" rx="3.3991146" ry="3.4116614"/>
		</g>
		<g>
			<g>
				<g>
					<path class="st4" d="M184.6346588,153.0145874c0.2708893,0.4715881,0.652771,0.8394623,1.0932922,1.088913
						l22.3657074,12.9605103l0.0007019-0.0007019c0.4363403,0.2578583,0.9438934,0.4057159,1.4863434,0.4057159
						s1.050705-0.1478577,1.4863434-0.4057159l22.3664093-12.9605103c0.4405212-0.2494507,0.8210144-0.6166229,1.0925903-1.0882111
						s0.397934-0.986618,0.3930511-1.4946442v-25.9209976l-0.0007019-0.0007019
						c0.0041962-0.5073242-0.1221771-1.0230484-0.3930511-1.4946365c-0.2715759-0.4715805-0.6534576-0.8387604-1.0932922-1.0889206
						l-22.366394-12.9605026v-0.0006943c-0.4356537-0.2578735-0.9431915-0.4057236-1.4856567-0.4057236
						c-0.541748,0-1.0493011,0.14785-1.4849396,0.4057236v0.0006943l-22.3657074,12.9605026
						c-0.4405365,0.2501602-0.8224182,0.6173401-1.0939941,1.0889206c-0.270874,0.4715881-0.3972473,0.9873123-0.3930511,1.4946365
						l-0.0007019,0.0007019v25.9209976c-0.0048828,0.5080261,0.1214752,1.023056,0.3923645,1.4946442"/>
				</g>
			</g>
		</g>
		<g>
			<ellipse cx="209.5803528" cy="138.5583954" rx="11.775178" ry="11.8186417"/>
		</g>
		<g>
			<ellipse class="st4" cx="211.1524048" cy="135.584259" rx="3.3991146" ry="3.4116614"/>
		</g>
		<g>
			<g>
				<g>
					<path class="st2" d="M164.5107727,152.214035C164.5107727,152.214035,164.5107727,152.58078,164.5107727,152.214035
						L164.5107727,152.214035z M145.3230438,152.214035L145.3230438,152.214035L145.3230438,152.214035z M163.8254852,150.3803406
						L163.8254852,150.3803406L163.8254852,150.3803406z"/>
				</g>
			</g>
			<g>
				<g>
					<path class="st2" d="M208.0258026,168.7172699L208.0258026,168.7172699L208.0258026,168.7172699z M217.2770538,152.214035
						C217.2770538,152.214035,217.2770538,152.58078,217.2770538,152.214035L217.2770538,152.214035z M198.0892944,152.214035
						L198.0892944,152.214035L198.0892944,152.214035z M216.2491302,150.3803406L216.2491302,150.3803406L216.2491302,150.3803406z
						 M208.0258026,146.3462219L208.0258026,146.3462219L208.0258026,146.3462219z"/>
				</g>
			</g>
			<g>
				<g>
					<path class="st0" d="M72.6837234,172.3846588c0,52.8103638,48.3119812,95.7187958,107.5884018,95.7187958
						s107.5883789-42.9084015,107.5883789-95.7187805c0,0-15.7613831,74.8146973-107.5884094,77.0151215
						c0,0-76.4082947,4.0341187-105.532547-69.3136139L72.6837234,172.3846588z"/>
				</g>
			</g>
			<g>
				<g>
					<path class="st0" d="M179.9294891,251.6002197c-60.9895782,0-111.0147781-43.6419067-111.0147781-97.1857452
						s49.6825409-97.1857452,111.0147781-97.1857452s110.6721039,43.6419029,110.6721039,97.1857452
						C290.9442749,207.958313,241.261734,251.6002197,179.9294891,251.6002197z M179.9294891,60.8961029
						c-59.2763901,0-107.5883942,41.8082123-107.5883942,93.5183716s48.3119812,93.5183563,107.5883942,93.5183563
						s107.2457428-41.8082123,107.2457428-93.5183563S239.2058716,60.8961029,179.9294891,60.8961029z"/>
				</g>
			</g>
			<g>
				<g>
					<rect x="231.8950653" y="26.9729424" class="st0" width="3.4263818" height="44.0086403"/>
				</g>
			</g>
		</g>
		<g>
			<path d="M208.9059753,187.6408691c3.3983307,0,5.9388123,3.0995941,5.3275909,6.4548645
				c-3.0262604,16.6121674-17.5214081,29.2034607-34.9465942,29.2034607s-31.9203339-12.5912933-34.9465942-29.2034607
				c-0.6112213-3.3552704,1.9292603-6.4548645,5.3275909-6.4548645H208.9059753z"/>
		</g>
		<g>
			<g>
				<path class="st1" d="M164.6799927,317.0269775c0.1403809,0.2818298,0.4211731,0.4227295,0.7019501,0.7045593
					l13.1967773,7.6091003l0,0c0.5615692,0.2818298,1.2635193,0.2818298,1.8250885,0l13.1967773-7.6091003
					c0.280777-0.1409302,0.4211731-0.4227295,0.7019501-0.7045593c0.1403961-0.2817993,0.280777-0.5636292,0.280777-0.845459
					v-15.3591309l0,0c0-0.2817993-0.1403809-0.5636292-0.280777-0.8454285
					c-0.1403961-0.2818298-0.4211731-0.4227295-0.7019501-0.7045593l-13.1967773-7.6091003l0,0
					c-0.5615692-0.2818298-1.2635193-0.2818298-1.8250885,0l0,0l-13.1967773,7.6091003
					c-0.280777,0.1408997-0.5615692,0.4227295-0.7019501,0.7045593c-0.1403961,0.2817993-0.280777,0.5636292-0.280777,0.8454285l0,0
					v15.3591309C164.3992004,316.4633484,164.5395966,316.7451477,164.6799927,317.0269775"/>
			</g>
		</g>
	</g>
</g>
</svg>
